<?xml version="1.0" encoding="UTF-8"?>
<svg version="1.1" xmlns="http://www.w3.org/2000/svg" width="48" height="48">
<path d="M0 0 C1.65 0 3.3 0 5 0 C5.33 2.97 5.66 5.94 6 9 C6.33 6.03 6.66 3.06 7 0 C11.29 0 15.58 0 20 0 C19.67 7.26 19.34 14.52 19 22 C19.90833969 19.27498092 20.18359985 17.37766029 20.31640625 14.55078125 C20.35830078 13.70322266 20.40019531 12.85566406 20.44335938 11.98242188 C20.48267578 11.10134766 20.52199219 10.22027344 20.5625 9.3125 C20.60568359 8.41982422 20.64886719 7.52714844 20.69335938 6.60742188 C20.79935353 4.40509892 20.90142051 2.20266527 21 0 C25 0 29 0 33 0 C33.50435694 1.9363704 34.00333874 3.87414146 34.5 5.8125 C34.7784375 6.89144531 35.056875 7.97039063 35.34375 9.08203125 C36 12 36 12 36 15 C36.66 15 37.32 15 38 15 C38.33 13.02 38.66 11.04 39 9 C38.01 9 37.02 9 36 9 C36 6.03 36 3.06 36 0 C39.63 0 43.26 0 47 0 C47 2.97 47 5.94 47 9 C46.01 9 45.02 9 44 9 C44 11.97 44 14.94 44 18 C44.99 18.33 45.98 18.66 47 19 C47 21.97 47 24.94 47 28 C46.01 28 45.02 28 44 28 C44 34.6 44 41.2 44 48 C42.35 48 40.7 48 39 48 C39 42.06 39 36.12 39 30 C37.68 30 36.36 30 35 30 C35 35.94 35 41.88 35 48 C30.38 48 25.76 48 21 48 C21 42.06 21 36.12 21 30 C20.01 30 19.02 30 18 30 C17.67 35.94 17.34 41.88 17 48 C15.02 48 13.04 48 11 48 C11 45.03 11 42.06 11 39 C10.34 39 9.68 39 9 39 C9.020625 40.11375 9.04125 41.2275 9.0625 42.375 C9 46 9 46 8 48 C6.35 48 4.7 48 3 48 C2.67 45.03 2.34 42.06 2 39 C1.01 39 0.02 39 -1 39 C-1.25 31.375 -1.25 31.375 1 28 C1.18436532 24.98980561 1.18436532 24.98980561 0.9765625 21.58203125 C0.89921875 19.70161133 0.89921875 19.70161133 0.8203125 17.78320312 C0.75585938 16.47287109 0.69140625 15.16253906 0.625 13.8125 C0.56674184 12.47725536 0.50943894 11.14196867 0.453125 9.80664062 C0.31148964 6.5372245 0.16005905 3.26855758 0 0 Z " fill="#122F31" transform="translate(1,0)"/>
<path d="M0 0 C1.2065625 0.0309375 1.2065625 0.0309375 2.4375 0.0625 C2.94185694 1.9988704 3.44083874 3.93664146 3.9375 5.875 C4.2159375 6.95394531 4.494375 8.03289063 4.78125 9.14453125 C5.4375 12.0625 5.4375 12.0625 5.4375 15.0625 C6.0975 15.0625 6.7575 15.0625 7.4375 15.0625 C7.7675 13.0825 8.0975 11.1025 8.4375 9.0625 C7.4475 9.0625 6.4575 9.0625 5.4375 9.0625 C5.4375 6.0925 5.4375 3.1225 5.4375 0.0625 C9.0675 0.0625 12.6975 0.0625 16.4375 0.0625 C16.4375 3.0325 16.4375 6.0025 16.4375 9.0625 C15.4475 9.0625 14.4575 9.0625 13.4375 9.0625 C13.4375 12.0325 13.4375 15.0025 13.4375 18.0625 C14.4275 18.3925 15.4175 18.7225 16.4375 19.0625 C16.4375 22.0325 16.4375 25.0025 16.4375 28.0625 C15.4475 28.0625 14.4575 28.0625 13.4375 28.0625 C13.4375 34.6625 13.4375 41.2625 13.4375 48.0625 C11.7875 48.0625 10.1375 48.0625 8.4375 48.0625 C8.4375 42.1225 8.4375 36.1825 8.4375 30.0625 C7.1175 30.0625 5.7975 30.0625 4.4375 30.0625 C4.4375 36.0025 4.4375 41.9425 4.4375 48.0625 C1.1375 48.0625 -2.1625 48.0625 -5.5625 48.0625 C-5.5625 40.4725 -5.5625 32.8825 -5.5625 25.0625 C-3.5825 25.0625 -1.6025 25.0625 0.4375 25.0625 C0.1075 20.4425 -0.2225 15.8225 -0.5625 11.0625 C-1.5525 10.7325 -2.5425 10.4025 -3.5625 10.0625 C-3.58939216 8.58343108 -3.60884621 7.10422517 -3.625 5.625 C-3.63660156 4.80128906 -3.64820312 3.97757812 -3.66015625 3.12890625 C-3.51340586 0.02366796 -3.12550237 0.07623177 0 0 Z " fill="#D4E0E3" transform="translate(31.5625,-0.0625)"/>
<path d="M0 0 C3.63 0 7.26 0 11 0 C11 2.97 11 5.94 11 9 C10.01 9 9.02 9 8 9 C8 11.97 8 14.94 8 18 C8.99 18.33 9.98 18.66 11 19 C11 21.97 11 24.94 11 28 C10.01 28 9.02 28 8 28 C8 34.6 8 41.2 8 48 C6.35 48 4.7 48 3 48 C3 35.13 3 22.26 3 9 C2.01 9 1.02 9 0 9 C0 6.03 0 3.06 0 0 Z " fill="#052221" transform="translate(37,0)"/>
<path d="M0 0 C1.65 0 3.3 0 5 0 C5 3.3 5 6.6 5 10 C6.65 10.33 8.3 10.66 10 11 C10 15.62 10 20.24 10 25 C8.02 25 6.04 25 4 25 C4 32.59 4 40.18 4 48 C2.68 48 1.36 48 0 48 C0 42.06 0 36.12 0 30 C-0.99 29.67 -1.98 29.34 -3 29 C-1.68 29 -0.36 29 1 29 C0.83628906 27.73285156 0.67257813 26.46570313 0.50390625 25.16015625 C-0.07978908 19.90689827 -0.11285949 14.71749915 -0.0625 9.4375 C-0.05798828 8.52419922 -0.05347656 7.61089844 -0.04882812 6.66992188 C-0.0371874 4.44654262 -0.02083851 2.22330879 0 0 Z " fill="#062323" transform="translate(22,0)"/>
<path d="M0 0 C1.65 0 3.3 0 5 0 C5.50435694 1.9363704 6.00333874 3.87414146 6.5 5.8125 C6.7784375 6.89144531 7.056875 7.97039063 7.34375 9.08203125 C8 12 8 12 8 15 C8.66 15 9.32 15 10 15 C11.7479503 20.24385089 12.19392201 24.47322267 12 30 C10.02 30 8.04 30 6 30 C5.95101562 28.72125 5.90203125 27.4425 5.8515625 26.125 C5.77647009 24.41664778 5.70092513 22.70831541 5.625 21 C5.5940625 20.16082031 5.563125 19.32164063 5.53125 18.45703125 C5.27950298 13.04447022 4.48441108 8.21354136 3 3 C1.68 3 0.36 3 -1 3 C-0.67 2.01 -0.34 1.02 0 0 Z " fill="#99BFDF" transform="translate(29,0)"/>
<path d="M0 0 C1.32 0 2.64 0 4 0 C6.52775351 3.79163027 6.22443035 6.80874031 6.125 11.1875 C6.11597656 11.93708984 6.10695313 12.68667969 6.09765625 13.45898438 C6.07412578 15.30612654 6.03825561 17.15310412 6 19 C4.68 19 3.36 19 2 19 C2 13.72 2 8.44 2 3 C1.34 3 0.68 3 0 3 C0 2.01 0 1.02 0 0 Z " fill="#0D2929" transform="translate(28,29)"/>
<path d="M0 0 C1.65 0.33 3.3 0.66 5 1 C5 5.62 5 10.24 5 15 C3.02 15 1.04 15 -1 15 C-0.67 10.05 -0.34 5.1 0 0 Z " fill="#032121" transform="translate(27,10)"/>
<path d="M0 0 C3.875 1.75 3.875 1.75 5 4 C7.52733235 4.65555119 7.52733235 4.65555119 10 5 C10 5.66 10 6.32 10 7 C10.66 7.33 11.32 7.66 12 8 C7.38 8 2.76 8 -2 8 C-1.125 1.125 -1.125 1.125 0 0 Z " fill="#D8E5E7" transform="translate(2,28)"/>
<path d="M0 0 C1.98 0 3.96 0 6 0 C6 3.3 6 6.6 6 10 C3.69 10 1.38 10 -1 10 C-0.67 6.7 -0.34 3.4 0 0 Z " fill="#B0C9DC" transform="translate(8,0)"/>
<path d="M0 0 C1.65 0 3.3 0 5 0 C5.50435694 1.9363704 6.00333874 3.87414146 6.5 5.8125 C6.7784375 6.89144531 7.056875 7.97039063 7.34375 9.08203125 C8 12 8 12 8 15 C8.66 15.33 9.32 15.66 10 16 C9.67 18.64 9.34 21.28 9 24 C8.690625 23.360625 8.38125 22.72125 8.0625 22.0625 C7.1654837 20.06389179 7.1654837 20.06389179 6 19 C5.62677755 16.69360186 5.30108195 14.37941973 5 12.0625 C4.51887678 7.37692514 4.51887678 7.37692514 3 3 C1.68 3 0.36 3 -1 3 C-0.67 2.01 -0.34 1.02 0 0 Z " fill="#819DB7" transform="translate(29,0)"/>
<path d="M0 0 C1.98 0 3.96 0 6 0 C6 3.63 6 7.26 6 11 C4.68 11 3.36 11 2 11 C2 8.03 2 5.06 2 2 C1.34 2 0.68 2 0 2 C0 1.34 0 0.68 0 0 Z " fill="#05201F" transform="translate(10,37)"/>
<path d="M0 0 C0.66 0.33 1.32 0.66 2 1 C2 2.32 2 3.64 2 5 C2.33 5.66 2.66 6.32 3 7 C3.07194869 9.88370333 3.09291708 12.74239664 3.0625 15.625 C3.05798828 16.42679688 3.05347656 17.22859375 3.04882812 18.0546875 C3.03703168 20.03649006 3.01909605 22.01825433 3 24 C1.02 24 -0.96 24 -3 24 C-3 23.67 -3 23.34 -3 23 C-1.35 23 0.3 23 2 23 C1.67 18.38 1.34 13.76 1 9 C0.01 8.67 -0.98 8.34 -2 8 C-2 5.69 -2 3.38 -2 1 C-1.34 0.67 -0.68 0.34 0 0 Z " fill="#93B2CB" transform="translate(30,2)"/>
<path d="M0 0 C1.98 0 3.96 0 6 0 C5.67 1.98 5.34 3.96 5 6 C3.35 6 1.7 6 0 6 C0 4.02 0 2.04 0 0 Z " fill="#0B2625" transform="translate(4,42)"/>
<path d="M0 0 C2.31 0 4.62 0 7 0 C7 1.32 7 2.64 7 4 C4.69 4.33 2.38 4.66 0 5 C0 3.35 0 1.7 0 0 Z " fill="#79A0BF" transform="translate(3,38)"/>
<path d="M0 0 C0.33 0.66 0.66 1.32 1 2 C-3.95 2.66 -8.9 3.32 -14 4 C-14 3.01 -14 2.02 -14 1 C-9.38 0.67 -4.76 0.34 0 0 Z " fill="#304A54" transform="translate(14,35)"/>
<path d="M0 0 C2.97 0.495 2.97 0.495 6 1 C6 1.66 6 2.32 6 3 C6.66 3.33 7.32 3.66 8 4 C3.71 4 -0.58 4 -5 4 C-5 3.67 -5 3.34 -5 3 C-3.35 3 -1.7 3 0 3 C0 2.01 0 1.02 0 0 Z " fill="#B3C5CB" transform="translate(6,32)"/>
<path d="M0 0 C1.65 0 3.3 0 5 0 C7.42857143 6.28571429 7.42857143 6.28571429 6 10 C5.01 7.69 4.02 5.38 3 3 C1.68 3 0.36 3 -1 3 C-0.67 2.01 -0.34 1.02 0 0 Z " fill="#283A38" transform="translate(29,0)"/>
<path d="M0 0 C0.33 0 0.66 0 1 0 C1 2.31 1 4.62 1 7 C-0.98 7 -2.96 7 -5 7 C-4.67 6.34 -4.34 5.68 -4 5 C-3.34 5 -2.68 5 -2 5 C-1.34 3.35 -0.68 1.7 0 0 Z " fill="#779FBC" transform="translate(22,21)"/>
<path d="M0 0 C2.475 0.495 2.475 0.495 5 1 C5 3.64 5 6.28 5 9 C4.67 9 4.34 9 4 9 C4 6.69 4 4.38 4 2 C2.68 2.99 1.36 3.98 0 5 C0 3.35 0 1.7 0 0 Z " fill="#22464C" transform="translate(27,10)"/>
<path d="M0 0 C1.98 0 3.96 0 6 0 C6 1.65 6 3.3 6 5 C5.34 4.67 4.68 4.34 4 4 C4 3.34 4 2.68 4 2 C2.02 2.99 2.02 2.99 0 4 C0 2.68 0 1.36 0 0 Z " fill="#17302E" transform="translate(8,0)"/>
</svg>
