<?xml version="1.0" encoding="UTF-8"?>
<svg version="1.1" xmlns="http://www.w3.org/2000/svg" width="32" height="32">
<path d="M0 0 C4.29 0 8.58 0 13 0 C13 4.29 13 8.58 13 13 C13.33 8.71 13.66 4.42 14 0 C16.64 0 19.28 0 22 0 C22.99 3.3 23.98 6.6 25 10 C25.33 8.68 25.66 7.36 26 6 C25.34 6 24.68 6 24 6 C24 4.02 24 2.04 24 0 C26.31 0 28.62 0 31 0 C31 1.98 31 3.96 31 6 C30.34 6 29.68 6 29 6 C29 7.98 29 9.96 29 12 C29.66 12 30.32 12 31 12 C31 14.31 31 16.62 31 19 C30.34 19 29.68 19 29 19 C29 23.29 29 27.58 29 32 C28.01 32 27.02 32 26 32 C26 28.04 26 24.08 26 20 C25.01 20 24.02 20 23 20 C23 23.96 23 27.92 23 32 C20.03 32 17.06 32 14 32 C14 28.04 14 24.08 14 20 C13.34 20 12.68 20 12 20 C11.67 23.96 11.34 27.92 11 32 C9.68 32 8.36 32 7 32 C6.67 31.34 6.34 30.68 6 30 C5.67 30.66 5.34 31.32 5 32 C4.01 32 3.02 32 2 32 C1.67 30.02 1.34 28.04 1 26 C0.34 26 -0.32 26 -1 26 C-1.04254356 24.00045254 -1.04080783 21.99958364 -1 20 C-0.67 19.67 -0.34 19.34 0 19 C0.08651611 17.58429877 0.10704904 16.164405 0.09765625 14.74609375 C0.09443359 13.89208984 0.09121094 13.03808594 0.08789062 12.15820312 C0.07951172 11.26037109 0.07113281 10.36253906 0.0625 9.4375 C0.05573242 8.08495117 0.05573242 8.08495117 0.04882812 6.70507812 C0.03700244 4.47002411 0.01906638 2.23500398 0 0 Z " fill="#0D2A2C" transform="translate(1,0)"/>
<path d="M0 0 C1.32 0 2.64 0 4 0 C4.99 3.3 5.98 6.6 7 10 C7.33 8.68 7.66 7.36 8 6 C7.34 6 6.68 6 6 6 C6 4.02 6 2.04 6 0 C8.31 0 10.62 0 13 0 C13 1.98 13 3.96 13 6 C12.34 6 11.68 6 11 6 C11 7.98 11 9.96 11 12 C11.66 12 12.32 12 13 12 C13 14.31 13 16.62 13 19 C12.34 19 11.68 19 11 19 C11 23.29 11 27.58 11 32 C10.01 32 9.02 32 8 32 C8 28.04 8 24.08 8 20 C7.01 20 6.02 20 5 20 C5 23.96 5 27.92 5 32 C2.69 32 0.38 32 -2 32 C-2 27.05 -2 22.1 -2 17 C-0.35 17 1.3 17 3 17 C2.67 13.37 2.34 9.74 2 6 C1.34 6 0.68 6 0 6 C0 4.02 0 2.04 0 0 Z " fill="#BFCCCF" transform="translate(19,0)"/>
<path d="M0 0 C4.29 0 8.58 0 13 0 C13.0809313 2.60478883 13.14045434 5.20706653 13.1875 7.8125 C13.22520508 8.91948242 13.22520508 8.91948242 13.26367188 10.04882812 C13.33780469 15.50994531 13.33780469 15.50994531 11.61328125 18.01171875 C10 19 10 19 8 19 C7.67 19.99 7.34 20.98 7 22 C4.9375 22.6875 4.9375 22.6875 3 23 C-1.05138584 15.97759787 -0.07982543 7.82289245 0 0 Z " fill="#082424" transform="translate(1,0)"/>
<path d="M0 0 C2.31 0 4.62 0 7 0 C7 1.98 7 3.96 7 6 C6.34 6 5.68 6 5 6 C5 7.98 5 9.96 5 12 C5.66 12 6.32 12 7 12 C7 14.31 7 16.62 7 19 C6.34 19 5.68 19 5 19 C5 23.29 5 27.58 5 32 C4.01 32 3.02 32 2 32 C2 23.42 2 14.84 2 6 C1.34 6 0.68 6 0 6 C0 4.02 0 2.04 0 0 Z " fill="#02201F" transform="translate(25,0)"/>
<path d="M0 0 C0.99 0 1.98 0 3 0 C3 1.98 3 3.96 3 6 C3.99 6 4.98 6 6 6 C6.33 9.63 6.66 13.26 7 17 C5.35 17 3.7 17 2 17 C2 21.95 2 26.9 2 32 C1.34 32 0.68 32 0 32 C0 28.04 0 24.08 0 20 C-0.99 19.67 -1.98 19.34 -3 19 C-2.01 19 -1.02 19 0 19 C-0.17402344 18.15179687 -0.34804687 17.30359375 -0.52734375 16.4296875 C-1.02185849 12.84139045 -0.89321337 9.72610117 -0.5625 6.125 C-0.46066406 4.97257813 -0.35882813 3.82015625 -0.25390625 2.6328125 C-0.12822266 1.32957031 -0.12822266 1.32957031 0 0 Z " fill="#092729" transform="translate(15,0)"/>
<path d="M0 0 C0.99 0 1.98 0 3 0 C3.8931507 6.58183362 3.95494281 12.42150508 3 19 C2.34 19 1.68 19 1 19 C0.15976812 14.64667264 -0.10770995 10.55557481 -0.0625 6.125 C-0.05347656 4.97257813 -0.04445312 3.82015625 -0.03515625 2.6328125 C-0.02355469 1.76398437 -0.01195313 0.89515625 0 0 Z " fill="#042020" transform="translate(1,0)"/>
<path d="M0 0 C0.33 0 0.66 0 1 0 C1 1.98 1 3.96 1 6 C0.34 6 -0.32 6 -1 6 C-1 10.29 -1 14.58 -1 19 C-1.99 19 -2.98 19 -4 19 C-4 13.72 -4 8.44 -4 3 C-3.67 3.66 -3.34 4.32 -3 5 C-2.01 5 -1.02 5 0 5 C0 3.35 0 1.7 0 0 Z " fill="#0C2727" transform="translate(31,13)"/>
<path d="M0 0 C2.82533116 5.63879119 4.25335864 9.53935473 4 16 C3.01 16 2.02 16 1 16 C0.08342019 10.61509359 -0.11138159 5.45769811 0 0 Z " fill="#98C2E3" transform="translate(23,4)"/>
<path d="M0 0 C1.65 0 3.3 0 5 0 C4.67 2.31 4.34 4.62 4 7 C3.01 7 2.02 7 1 7 C0.67 4.69 0.34 2.38 0 0 Z " fill="#486878" transform="translate(2,25)"/>
<path d="M0 0 C0.99 0 1.98 0 3 0 C3 4.29 3 8.58 3 13 C2.34 13 1.68 13 1 13 C0.67 8.71 0.34 4.42 0 0 Z " fill="#042222" transform="translate(19,19)"/>
<path d="M0 0 C1.32 0 2.64 0 4 0 C4 2.31 4 4.62 4 7 C2.68 7 1.36 7 0 7 C0 4.69 0 2.38 0 0 Z " fill="#7995A1" transform="translate(5,0)"/>
<path d="M0 0 C0 1.65 0 3.3 0 5 C-0.99 5.495 -0.99 5.495 -2 6 C-2.46898963 8.8159849 -2.46898963 8.8159849 -2.625 12.0625 C-2.69976562 13.16722656 -2.77453125 14.27195312 -2.8515625 15.41015625 C-2.90054687 16.26480469 -2.94953125 17.11945312 -3 18 C-3.33 18 -3.66 18 -4 18 C-4.08119503 15.75059705 -4.13927819 13.50035129 -4.1875 11.25 C-4.22230469 9.99703125 -4.25710938 8.7440625 -4.29296875 7.453125 C-4.07788137 4.91796178 -3.54311391 0 0 0 Z " fill="#87A9C8" transform="translate(15,14)"/>
<path d="M0 0 C3 1 3 1 4 3 C6.02463255 3.65213292 6.02463255 3.65213292 8 4 C8 4.33 8 4.66 8 5 C5.03 5 2.06 5 -1 5 C-0.67 3.35 -0.34 1.7 0 0 Z " fill="#CFDDE1" transform="translate(1,19)"/>
<path d="M0 0 C1.32 0 2.64 0 4 0 C4 0.99 4 1.98 4 3 C3.01 3.495 3.01 3.495 2 4 C2.33 4.33 2.66 4.66 3 5 C3.04092937 7.33297433 3.04241723 9.66705225 3 12 C2.67 12 2.34 12 2 12 C2 10.02 2 8.04 2 6 C1.34 6 0.68 6 0 6 C0 4.02 0 2.04 0 0 Z " fill="#7390A1" transform="translate(19,0)"/>
<path d="M0 0 C1.66905241 3.33810482 2.8741386 6.46157845 4 10 C2.68 9.67 1.36 9.34 0 9 C0 6.03 0 3.06 0 0 Z " fill="#889EAA" transform="translate(23,4)"/>
</svg>
