<?xml version="1.0" encoding="UTF-8"?>
<svg version="1.1" xmlns="http://www.w3.org/2000/svg" width="16" height="16">
<path d="M0 0 C5.28 0 10.56 0 16 0 C16.07635002 5.6499013 15.93649335 10.38103988 15 16 C10.38 16 5.76 16 1 16 C0.32561594 10.5206295 0 5.57418161 0 0 Z " fill="#213E40" transform="translate(0,0)"/>
<path d="M0 0 C0.99 0 1.98 0 3 0 C3.09688221 5.44693314 3.12862175 10.63904667 2 16 C1.34 16 0.68 16 0 16 C0.01160156 15.41992188 0.02320313 14.83984375 0.03515625 14.2421875 C0.08783293 9.68189211 -0.21168197 5.50467444 -1 1 C-0.67 0.67 -0.34 0.34 0 0 Z " fill="#042221" transform="translate(13,0)"/>
<path d="M0 0 C1.60031344 3.20062687 0.03173691 5.72271806 -1 9 C-2.65 9 -4.3 9 -6 9 C-6.33 6.69 -6.66 4.38 -7 2 C-4.525 2.99 -4.525 2.99 -2 4 C-1.34 2.68 -0.68 1.36 0 0 Z " fill="#57727C" transform="translate(7,7)"/>
<path d="M0 0 C3 1 3 1 4.1875 3.375 C5 6 5 6 5 9 C4.34 9 3.68 9 3 9 C3 10.98 3 12.96 3 15 C2.67 15 2.34 15 2 15 C2 10.71 2 6.42 2 2 C1.34 2 0.68 2 0 2 C0 1.34 0 0.68 0 0 Z " fill="#A8BECA" transform="translate(9,1)"/>
</svg>
